<mxfile host="app.diagrams.net" modified="2023-05-30T00:40:40.553Z" agent="Mozilla/5.0 (Windows NT 10.0; Win64; x64) AppleWebKit/537.36 (KHTML, like Gecko) Chrome/113.0.0.0 Safari/537.36" etag="LyzrzwV91-UfWtcTyC2V" version="21.3.4" type="device">
  <diagram name="페이지-1" id="kp3Ht0IMtsiEqfidkuXz">
    <mxGraphModel dx="932" dy="878" grid="1" gridSize="10" guides="1" tooltips="1" connect="1" arrows="1" fold="1" page="1" pageScale="1" pageWidth="4681" pageHeight="3300" math="0" shadow="0">
      <root>
        <mxCell id="0" />
        <mxCell id="1" parent="0" />
        <mxCell id="Tn_DJYKtMxu4b47JL-0w-9" style="rounded=0;orthogonalLoop=1;jettySize=auto;html=1;entryX=0.5;entryY=0;entryDx=0;entryDy=0;exitX=0.5;exitY=1;exitDx=0;exitDy=0;" edge="1" parent="1" source="Tn_DJYKtMxu4b47JL-0w-1" target="Tn_DJYKtMxu4b47JL-0w-2">
          <mxGeometry relative="1" as="geometry" />
        </mxCell>
        <mxCell id="Tn_DJYKtMxu4b47JL-0w-10" style="edgeStyle=none;shape=connector;rounded=0;orthogonalLoop=1;jettySize=auto;html=1;entryX=0.5;entryY=0;entryDx=0;entryDy=0;labelBackgroundColor=default;strokeColor=default;fontFamily=Helvetica;fontSize=11;fontColor=default;endArrow=classic;exitX=0.5;exitY=1;exitDx=0;exitDy=0;" edge="1" parent="1" source="Tn_DJYKtMxu4b47JL-0w-1" target="Tn_DJYKtMxu4b47JL-0w-8">
          <mxGeometry relative="1" as="geometry" />
        </mxCell>
        <mxCell id="Tn_DJYKtMxu4b47JL-0w-11" style="edgeStyle=none;shape=connector;rounded=0;orthogonalLoop=1;jettySize=auto;html=1;entryX=0.5;entryY=0;entryDx=0;entryDy=0;labelBackgroundColor=default;strokeColor=default;fontFamily=Helvetica;fontSize=11;fontColor=default;endArrow=classic;exitX=0.5;exitY=1;exitDx=0;exitDy=0;" edge="1" parent="1" source="Tn_DJYKtMxu4b47JL-0w-1" target="Tn_DJYKtMxu4b47JL-0w-7">
          <mxGeometry relative="1" as="geometry" />
        </mxCell>
        <mxCell id="Tn_DJYKtMxu4b47JL-0w-12" style="edgeStyle=none;shape=connector;rounded=0;orthogonalLoop=1;jettySize=auto;html=1;entryX=0.5;entryY=0;entryDx=0;entryDy=0;labelBackgroundColor=default;strokeColor=default;fontFamily=Helvetica;fontSize=11;fontColor=default;endArrow=classic;exitX=0.5;exitY=1;exitDx=0;exitDy=0;" edge="1" parent="1" source="Tn_DJYKtMxu4b47JL-0w-1" target="Tn_DJYKtMxu4b47JL-0w-5">
          <mxGeometry relative="1" as="geometry" />
        </mxCell>
        <mxCell id="Tn_DJYKtMxu4b47JL-0w-13" style="edgeStyle=none;shape=connector;rounded=0;orthogonalLoop=1;jettySize=auto;html=1;entryX=0.5;entryY=0;entryDx=0;entryDy=0;labelBackgroundColor=default;strokeColor=default;fontFamily=Helvetica;fontSize=11;fontColor=default;endArrow=classic;exitX=0.5;exitY=1;exitDx=0;exitDy=0;" edge="1" parent="1" source="Tn_DJYKtMxu4b47JL-0w-1" target="Tn_DJYKtMxu4b47JL-0w-6">
          <mxGeometry relative="1" as="geometry" />
        </mxCell>
        <mxCell id="Tn_DJYKtMxu4b47JL-0w-1" value="상품정보" style="rounded=1;arcSize=10;whiteSpace=wrap;html=1;align=center;" vertex="1" parent="1">
          <mxGeometry x="199" y="510" width="100" height="40" as="geometry" />
        </mxCell>
        <mxCell id="Tn_DJYKtMxu4b47JL-0w-2" value="상품코드" style="ellipse;whiteSpace=wrap;html=1;align=center;fontStyle=4;" vertex="1" parent="1">
          <mxGeometry x="9" y="630" width="80" height="40" as="geometry" />
        </mxCell>
        <mxCell id="Tn_DJYKtMxu4b47JL-0w-5" value="매출단가" style="ellipse;whiteSpace=wrap;html=1;align=center;" vertex="1" parent="1">
          <mxGeometry x="309" y="630" width="80" height="40" as="geometry" />
        </mxCell>
        <mxCell id="Tn_DJYKtMxu4b47JL-0w-6" value="매입단가" style="ellipse;whiteSpace=wrap;html=1;align=center;" vertex="1" parent="1">
          <mxGeometry x="409" y="630" width="80" height="40" as="geometry" />
        </mxCell>
        <mxCell id="Tn_DJYKtMxu4b47JL-0w-7" value="품목" style="ellipse;whiteSpace=wrap;html=1;align=center;" vertex="1" parent="1">
          <mxGeometry x="209" y="630" width="80" height="40" as="geometry" />
        </mxCell>
        <mxCell id="Tn_DJYKtMxu4b47JL-0w-8" value="상품명" style="ellipse;whiteSpace=wrap;html=1;align=center;" vertex="1" parent="1">
          <mxGeometry x="109" y="630" width="80" height="40" as="geometry" />
        </mxCell>
        <mxCell id="Tn_DJYKtMxu4b47JL-0w-14" style="rounded=0;orthogonalLoop=1;jettySize=auto;html=1;entryX=0.5;entryY=0;entryDx=0;entryDy=0;exitX=0.5;exitY=1;exitDx=0;exitDy=0;" edge="1" parent="1" source="Tn_DJYKtMxu4b47JL-0w-19" target="Tn_DJYKtMxu4b47JL-0w-20">
          <mxGeometry relative="1" as="geometry" />
        </mxCell>
        <mxCell id="Tn_DJYKtMxu4b47JL-0w-15" style="edgeStyle=none;shape=connector;rounded=0;orthogonalLoop=1;jettySize=auto;html=1;entryX=0.5;entryY=0;entryDx=0;entryDy=0;labelBackgroundColor=default;strokeColor=default;fontFamily=Helvetica;fontSize=11;fontColor=default;endArrow=classic;exitX=0.5;exitY=1;exitDx=0;exitDy=0;" edge="1" parent="1" source="Tn_DJYKtMxu4b47JL-0w-19" target="Tn_DJYKtMxu4b47JL-0w-24">
          <mxGeometry relative="1" as="geometry" />
        </mxCell>
        <mxCell id="Tn_DJYKtMxu4b47JL-0w-16" style="edgeStyle=none;shape=connector;rounded=0;orthogonalLoop=1;jettySize=auto;html=1;entryX=0.5;entryY=0;entryDx=0;entryDy=0;labelBackgroundColor=default;strokeColor=default;fontFamily=Helvetica;fontSize=11;fontColor=default;endArrow=classic;exitX=0.5;exitY=1;exitDx=0;exitDy=0;" edge="1" parent="1" source="Tn_DJYKtMxu4b47JL-0w-19" target="Tn_DJYKtMxu4b47JL-0w-23">
          <mxGeometry relative="1" as="geometry" />
        </mxCell>
        <mxCell id="Tn_DJYKtMxu4b47JL-0w-17" style="edgeStyle=none;shape=connector;rounded=0;orthogonalLoop=1;jettySize=auto;html=1;entryX=0.5;entryY=0;entryDx=0;entryDy=0;labelBackgroundColor=default;strokeColor=default;fontFamily=Helvetica;fontSize=11;fontColor=default;endArrow=classic;exitX=0.5;exitY=1;exitDx=0;exitDy=0;" edge="1" parent="1" source="Tn_DJYKtMxu4b47JL-0w-19" target="Tn_DJYKtMxu4b47JL-0w-21">
          <mxGeometry relative="1" as="geometry" />
        </mxCell>
        <mxCell id="Tn_DJYKtMxu4b47JL-0w-19" value="고객정보" style="rounded=1;arcSize=10;whiteSpace=wrap;html=1;align=center;" vertex="1" parent="1">
          <mxGeometry x="649" y="520" width="100" height="40" as="geometry" />
        </mxCell>
        <mxCell id="Tn_DJYKtMxu4b47JL-0w-20" value="고객ID" style="ellipse;whiteSpace=wrap;html=1;align=center;fontStyle=4;" vertex="1" parent="1">
          <mxGeometry x="499" y="630" width="80" height="40" as="geometry" />
        </mxCell>
        <mxCell id="Tn_DJYKtMxu4b47JL-0w-21" value="주소" style="ellipse;whiteSpace=wrap;html=1;align=center;" vertex="1" parent="1">
          <mxGeometry x="799" y="630" width="80" height="40" as="geometry" />
        </mxCell>
        <mxCell id="Tn_DJYKtMxu4b47JL-0w-23" value="전화번호" style="ellipse;whiteSpace=wrap;html=1;align=center;" vertex="1" parent="1">
          <mxGeometry x="699" y="630" width="80" height="40" as="geometry" />
        </mxCell>
        <mxCell id="Tn_DJYKtMxu4b47JL-0w-24" value="고객이름" style="ellipse;whiteSpace=wrap;html=1;align=center;" vertex="1" parent="1">
          <mxGeometry x="599" y="630" width="80" height="40" as="geometry" />
        </mxCell>
        <mxCell id="Tn_DJYKtMxu4b47JL-0w-25" style="rounded=0;orthogonalLoop=1;jettySize=auto;html=1;entryX=0.5;entryY=0;entryDx=0;entryDy=0;exitX=0.5;exitY=1;exitDx=0;exitDy=0;" edge="1" parent="1" source="Tn_DJYKtMxu4b47JL-0w-30" target="Tn_DJYKtMxu4b47JL-0w-31">
          <mxGeometry relative="1" as="geometry" />
        </mxCell>
        <mxCell id="Tn_DJYKtMxu4b47JL-0w-26" style="edgeStyle=none;shape=connector;rounded=0;orthogonalLoop=1;jettySize=auto;html=1;entryX=0.5;entryY=0;entryDx=0;entryDy=0;labelBackgroundColor=default;strokeColor=default;fontFamily=Helvetica;fontSize=11;fontColor=default;endArrow=classic;exitX=0.5;exitY=1;exitDx=0;exitDy=0;" edge="1" parent="1" source="Tn_DJYKtMxu4b47JL-0w-30" target="Tn_DJYKtMxu4b47JL-0w-35">
          <mxGeometry relative="1" as="geometry" />
        </mxCell>
        <mxCell id="Tn_DJYKtMxu4b47JL-0w-27" style="edgeStyle=none;shape=connector;rounded=0;orthogonalLoop=1;jettySize=auto;html=1;entryX=0.5;entryY=0;entryDx=0;entryDy=0;labelBackgroundColor=default;strokeColor=default;fontFamily=Helvetica;fontSize=11;fontColor=default;endArrow=classic;exitX=0.5;exitY=1;exitDx=0;exitDy=0;" edge="1" parent="1" source="Tn_DJYKtMxu4b47JL-0w-30" target="Tn_DJYKtMxu4b47JL-0w-34">
          <mxGeometry relative="1" as="geometry" />
        </mxCell>
        <mxCell id="Tn_DJYKtMxu4b47JL-0w-28" style="edgeStyle=none;shape=connector;rounded=0;orthogonalLoop=1;jettySize=auto;html=1;entryX=0.5;entryY=0;entryDx=0;entryDy=0;labelBackgroundColor=default;strokeColor=default;fontFamily=Helvetica;fontSize=11;fontColor=default;endArrow=classic;exitX=0.5;exitY=1;exitDx=0;exitDy=0;" edge="1" parent="1" source="Tn_DJYKtMxu4b47JL-0w-30" target="Tn_DJYKtMxu4b47JL-0w-32">
          <mxGeometry relative="1" as="geometry" />
        </mxCell>
        <mxCell id="Tn_DJYKtMxu4b47JL-0w-29" style="edgeStyle=none;shape=connector;rounded=0;orthogonalLoop=1;jettySize=auto;html=1;entryX=0.5;entryY=0;entryDx=0;entryDy=0;labelBackgroundColor=default;strokeColor=default;fontFamily=Helvetica;fontSize=11;fontColor=default;endArrow=classic;exitX=0.5;exitY=1;exitDx=0;exitDy=0;" edge="1" parent="1" source="Tn_DJYKtMxu4b47JL-0w-30" target="Tn_DJYKtMxu4b47JL-0w-33">
          <mxGeometry relative="1" as="geometry" />
        </mxCell>
        <mxCell id="Tn_DJYKtMxu4b47JL-0w-30" value="판매내역" style="rounded=1;arcSize=10;whiteSpace=wrap;html=1;align=center;" vertex="1" parent="1">
          <mxGeometry x="400" y="230" width="100" height="40" as="geometry" />
        </mxCell>
        <mxCell id="Tn_DJYKtMxu4b47JL-0w-31" value="SEQ" style="ellipse;whiteSpace=wrap;html=1;align=center;fontStyle=4;" vertex="1" parent="1">
          <mxGeometry x="110" y="340" width="80" height="40" as="geometry" />
        </mxCell>
        <mxCell id="Tn_DJYKtMxu4b47JL-0w-32" value="고객ID" style="ellipse;whiteSpace=wrap;html=1;align=center;" vertex="1" parent="1">
          <mxGeometry x="410" y="340" width="80" height="40" as="geometry" />
        </mxCell>
        <mxCell id="Tn_DJYKtMxu4b47JL-0w-33" value="상품코드" style="ellipse;whiteSpace=wrap;html=1;align=center;" vertex="1" parent="1">
          <mxGeometry x="510" y="340" width="80" height="40" as="geometry" />
        </mxCell>
        <mxCell id="Tn_DJYKtMxu4b47JL-0w-34" value="거래시각" style="ellipse;whiteSpace=wrap;html=1;align=center;" vertex="1" parent="1">
          <mxGeometry x="310" y="340" width="80" height="40" as="geometry" />
        </mxCell>
        <mxCell id="Tn_DJYKtMxu4b47JL-0w-35" value="거래일자" style="ellipse;whiteSpace=wrap;html=1;align=center;" vertex="1" parent="1">
          <mxGeometry x="210" y="340" width="80" height="40" as="geometry" />
        </mxCell>
        <mxCell id="Tn_DJYKtMxu4b47JL-0w-36" style="edgeStyle=none;shape=connector;rounded=0;orthogonalLoop=1;jettySize=auto;html=1;entryX=0.5;entryY=0;entryDx=0;entryDy=0;labelBackgroundColor=default;strokeColor=default;fontFamily=Helvetica;fontSize=11;fontColor=default;endArrow=classic;exitX=0.5;exitY=1;exitDx=0;exitDy=0;" edge="1" parent="1" target="Tn_DJYKtMxu4b47JL-0w-37" source="Tn_DJYKtMxu4b47JL-0w-30">
          <mxGeometry relative="1" as="geometry">
            <mxPoint x="450" y="260" as="sourcePoint" />
          </mxGeometry>
        </mxCell>
        <mxCell id="Tn_DJYKtMxu4b47JL-0w-37" value="수량" style="ellipse;whiteSpace=wrap;html=1;align=center;" vertex="1" parent="1">
          <mxGeometry x="610" y="340" width="80" height="40" as="geometry" />
        </mxCell>
        <mxCell id="Tn_DJYKtMxu4b47JL-0w-38" style="edgeStyle=none;shape=connector;rounded=0;orthogonalLoop=1;jettySize=auto;html=1;entryX=0.5;entryY=0;entryDx=0;entryDy=0;labelBackgroundColor=default;strokeColor=default;fontFamily=Helvetica;fontSize=11;fontColor=default;endArrow=classic;exitX=0.5;exitY=1;exitDx=0;exitDy=0;" edge="1" parent="1" target="Tn_DJYKtMxu4b47JL-0w-39" source="Tn_DJYKtMxu4b47JL-0w-30">
          <mxGeometry relative="1" as="geometry">
            <mxPoint x="550" y="260" as="sourcePoint" />
          </mxGeometry>
        </mxCell>
        <mxCell id="Tn_DJYKtMxu4b47JL-0w-39" value="판매단가" style="ellipse;whiteSpace=wrap;html=1;align=center;" vertex="1" parent="1">
          <mxGeometry x="710" y="340" width="80" height="40" as="geometry" />
        </mxCell>
        <mxCell id="Tn_DJYKtMxu4b47JL-0w-40" value="" style="fontSize=12;html=1;endArrow=ERoneToMany;rounded=0;labelBackgroundColor=default;strokeColor=default;fontFamily=Helvetica;fontColor=default;shape=connector;exitX=1;exitY=0.5;exitDx=0;exitDy=0;entryX=0;entryY=0.5;entryDx=0;entryDy=0;" edge="1" parent="1" source="Tn_DJYKtMxu4b47JL-0w-1" target="Tn_DJYKtMxu4b47JL-0w-30">
          <mxGeometry width="100" height="100" relative="1" as="geometry">
            <mxPoint x="370" y="410" as="sourcePoint" />
            <mxPoint x="470" y="310" as="targetPoint" />
          </mxGeometry>
        </mxCell>
        <mxCell id="Tn_DJYKtMxu4b47JL-0w-41" value="" style="fontSize=12;html=1;endArrow=ERoneToMany;rounded=0;labelBackgroundColor=default;strokeColor=default;fontFamily=Helvetica;fontColor=default;shape=connector;exitX=0;exitY=0.5;exitDx=0;exitDy=0;entryX=1;entryY=0.5;entryDx=0;entryDy=0;" edge="1" parent="1" source="Tn_DJYKtMxu4b47JL-0w-19" target="Tn_DJYKtMxu4b47JL-0w-30">
          <mxGeometry width="100" height="100" relative="1" as="geometry">
            <mxPoint x="560" y="110" as="sourcePoint" />
            <mxPoint x="590" y="530" as="targetPoint" />
          </mxGeometry>
        </mxCell>
      </root>
    </mxGraphModel>
  </diagram>
</mxfile>
